<svg width="1920" height="150" viewBox="0 0 1920 150" fill="none" xmlns="http://www.w3.org/2000/svg">
<path d="M1760 93.4658L1920 114.294V150H0V0.00292963C0 0.00292963 636.5 2.98434 960 13.1278C1280 30.9807 1600 72.6375 1760 93.4658Z" fill="#4B4B4D"/>
<path d="M1120 13.1249C1440 30.9778 1760 72.6345 1920 93.4629V149.997H160V0C160 0 796.5 2.98141 1120 13.1249Z" fill="#4B4B4D" fill-opacity="0.75"/>
<path d="M283 0C283 0 919.5 2.98141 1243 13.1249C1494.58 27.1609 1746.17 55.9103 1920 77.6837V149.997H283V0Z" fill="#4B4B4D" fill-opacity="0.5"/>
<path d="M411 0C411 0 1047.5 2.98141 1371 13.1249C1566.08 24.0087 1761.17 43.7394 1920 62.2043V149.997H411V0Z" fill="#4B4B4D" fill-opacity="0.25"/>
</svg>
