<svg width="501" height="306" viewBox="0 0 501 306" fill="none" xmlns="http://www.w3.org/2000/svg">
<path d="M230.101 0.334755C182.57 3.49362 139.106 20.7744 102.137 51.2482C94.9864 57.1478 81.2927 70.6194 75.7778 77.2158C45.8665 112.939 29.1349 152.471 24.2276 199.157C23.4331 206.776 23.4331 231.443 24.2276 239.107C25.4895 251.185 27.4991 262.845 30.1164 273.112C32.2195 281.241 32.7803 282.867 33.3412 282.402C33.6683 282.17 36.2388 280.219 39.043 278.036C41.8939 275.852 44.4644 273.762 44.7448 273.437C45.1655 272.926 44.9785 271.486 43.9036 267.212C42.2211 260.29 40.9592 253.462 39.6973 244.45C38.2952 234.323 37.9681 211.746 38.9963 200.551C43.0623 158.138 59.1864 119.907 86.901 86.9712C91.7149 81.2573 105.783 67.2747 111.484 62.6293C145.602 34.5712 185.047 18.5911 228.279 15.2C236.13 14.5961 252.628 14.5961 260.2 15.2464C303.15 18.7305 342.923 34.9429 376.246 62.5364C382.742 67.9251 394.707 79.6779 400.175 86.0421C428.404 118.978 445.182 158.789 448.968 201.805C449.902 212.304 449.669 232.093 448.5 241.895C447.799 247.562 445.79 259.779 445.182 262.102C444.948 262.845 446.164 264.1 451.211 268.466L457.521 273.901L458.035 272.183C459.016 268.652 461.306 256.806 462.194 250.489C467.662 212.304 463.129 173.793 448.921 138.07C446.023 130.731 437.891 114.332 433.872 107.643C414.43 75.3577 388.678 49.7152 356.336 30.4833C349.373 26.3489 332.921 18.3124 325.537 15.4323C306.469 7.99964 286.278 3.12198 265.714 1.03156C257.162 0.148939 238.467 -0.222691 230.101 0.334755Z" fill="#404040"/>
<path d="M262.724 69.8755C261.695 71.6408 260.387 74.2886 259.826 75.8216C257.255 82.6503 253.47 86.506 244.356 91.3836C240.197 93.6134 235.476 97.8872 232.999 101.603C232.251 102.765 230.756 104.855 229.681 106.249C228.653 107.642 226.55 110.569 225.101 112.706C223.605 114.843 220.941 118.28 219.119 120.371C215.987 123.994 214.445 125.295 209.07 128.825C207.762 129.708 205.752 131.52 204.63 132.867C202.48 135.375 199.723 138.627 198.835 139.556C198.555 139.835 197.526 140.625 196.545 141.275C195.563 141.925 193.694 143.458 192.385 144.666C191.03 145.92 188.459 148.15 186.73 149.683C184.954 151.216 183.085 152.842 182.617 153.307C179.019 156.837 173.177 161.529 172.335 161.622C171.775 161.668 169.858 161.715 168.036 161.761C163.829 161.854 157.567 164.223 152.659 167.614L149.154 169.984L146.07 169.426C144.387 169.101 141.91 168.962 140.601 169.054L138.218 169.287L129.992 177.648C125.459 182.201 120.084 187.729 117.981 189.959C115.878 192.142 112.793 195.022 111.111 196.323C109.428 197.624 107.979 198.878 107.886 199.11C107.792 199.342 106.297 201.061 104.474 202.966C102.698 204.87 100.221 207.89 99.006 209.655C96.4355 213.511 95.0802 214.858 91.9021 216.995C88.7708 219.085 87.9295 220.014 85.2656 224.706C84.0037 226.889 82.0875 229.677 80.9658 230.977C79.8441 232.232 78.2551 234.229 77.4606 235.391C76.6661 236.552 75.9183 237.574 75.7781 237.713C75.3107 238.085 73.3945 240.919 73.3945 241.151C73.3945 241.615 70.4969 246.214 68.8143 248.398C67.3188 250.395 55.4945 262.798 46.2874 272.043C42.0811 276.27 33.3882 283.238 32.36 283.238C32.0796 283.238 31.7991 283.377 31.7057 283.61C31.3318 284.492 20.302 292.204 16.1424 294.48C13.5719 295.92 10.4406 297.639 9.13199 298.335C3.24321 301.541 0.953125 302.981 0.953125 303.492C0.953125 303.771 1.46723 304.235 2.16827 304.514C3.05626 304.932 63.6266 305.071 251.133 305.071C387.416 305.071 499.397 304.932 500.004 304.793C500.659 304.607 501.032 304.189 500.939 303.724C500.799 302.981 500.004 302.702 494.396 301.123C491.685 300.379 488.46 298.382 478.365 291.089C471.588 286.211 470.981 285.746 464.017 279.754C460.746 276.92 455.932 272.879 453.268 270.695C448.174 266.515 440.041 258.571 434.153 252.067C430.414 247.98 419.711 232.232 416.58 226.332C409.756 213.325 408.962 212.164 403.821 207.518C390.735 195.719 388.865 193.907 386.622 190.563C384.285 187.079 383.023 185.964 378.583 183.223C376.667 182.062 373.255 179.321 371.012 177.137C366.385 172.631 365.31 171.981 361.805 171.563C360.403 171.377 358.673 170.913 357.926 170.541C357.178 170.169 352.738 166.035 348.064 161.39C340.259 153.632 339.465 152.656 338.203 149.683C335.726 143.876 330.818 133.982 328.108 129.429C325.631 125.248 323.948 121.997 320.396 114.378C319.555 112.567 317.966 109.222 316.891 106.946C313.105 98.9556 312.545 97.6085 310.535 91.9411C309.413 88.7822 308.058 85.6234 307.497 84.973C306.282 83.3936 302.122 81.1638 300.346 81.1638C299.318 81.1638 298.29 81.9071 295.579 84.6478C293.71 86.5524 291.607 88.2248 290.952 88.4106C288.756 88.968 283.755 88.3177 282.68 87.3886C282.166 86.8776 278.754 82.8361 275.155 78.3766C268.519 70.1078 265.575 66.7631 264.92 66.7631C264.733 66.7631 263.752 68.1567 262.724 69.8755ZM246.973 153.771C249.31 155.908 252.068 158.37 253.049 159.253C254.031 160.135 255.106 161.064 255.386 161.343C255.666 161.575 259.919 165.338 264.78 169.658C269.687 173.979 273.894 177.741 274.174 178.02C274.454 178.252 276.23 179.832 278.1 181.504C279.969 183.176 281.745 184.709 282.026 184.988C282.306 185.22 285.484 188.054 289.083 191.259C292.682 194.465 295.86 197.252 296.14 197.531C296.421 197.763 297.402 198.599 298.243 199.389C300.86 201.665 312.404 211.885 312.965 212.442C313.246 212.675 315.162 214.347 317.171 216.159C319.134 217.924 321.752 220.247 322.92 221.269C324.088 222.337 325.724 223.777 326.472 224.474C327.267 225.171 329.229 226.936 330.865 228.376C332.501 229.816 334.09 231.21 334.37 231.488C334.651 231.767 336.894 233.765 339.371 235.948C341.848 238.131 344.279 240.315 344.793 240.779C345.307 241.244 346.522 242.359 347.55 243.241C348.532 244.124 350.308 245.703 351.476 246.725C352.644 247.794 354.467 249.373 355.449 250.256C362.412 256.388 366.291 259.779 366.712 260.197C367.927 261.358 377.181 269.581 383.49 275.109C385.547 276.874 388.257 279.336 389.566 280.497C390.828 281.659 392.744 283.331 393.726 284.214C394.707 285.096 395.876 286.118 396.296 286.49C396.717 286.908 398.82 288.766 401.017 290.671C403.213 292.575 407.092 296.013 409.663 298.335C412.233 300.612 414.851 302.981 415.505 303.538L416.673 304.607H385.36L383.958 303.399C383.21 302.749 381.808 301.541 380.92 300.751C380.032 299.915 377.508 297.685 375.312 295.781C372.18 292.993 366.151 287.698 361.478 283.47C361.197 283.192 359.421 281.659 357.552 279.986C355.682 278.314 353.906 276.734 353.626 276.502C353.345 276.223 350.167 273.436 346.569 270.231C342.97 267.026 339.792 264.238 339.511 263.96C339.231 263.727 337.455 262.148 335.586 260.476C333.669 258.803 331.94 257.224 331.66 256.992C331.379 256.713 329.37 254.948 327.173 253.043C324.976 251.138 322.967 249.327 322.686 249.048C322.406 248.816 320.49 247.143 318.48 245.332C316.517 243.566 313.9 241.244 312.732 240.222C311.563 239.153 309.974 237.713 309.18 237.016C308.432 236.32 306.422 234.554 304.786 233.114C303.151 231.674 301.562 230.281 301.281 230.002C301.001 229.723 298.757 227.726 296.28 225.542C293.803 223.359 291.373 221.176 290.859 220.711C290.345 220.247 289.223 219.178 288.335 218.435C287.447 217.645 284.736 215.276 282.259 213.093C279.829 210.909 276.137 207.658 274.127 205.892C272.071 204.081 269.36 201.665 268.052 200.504C266.79 199.342 264.873 197.67 263.892 196.787C262.911 195.905 261.742 194.883 261.322 194.511C260.901 194.093 258.798 192.235 256.601 190.33C249.871 184.431 243.281 178.485 243.141 178.113C242.767 177.323 242.206 177.695 237.907 181.643C236.738 182.712 234.121 185.081 232.111 186.846C230.055 188.658 228.045 190.423 227.625 190.795C224.633 193.489 221.689 196.137 218.558 198.878C216.548 200.69 214.632 202.362 214.351 202.594C214.071 202.873 212.155 204.592 210.145 206.357C208.089 208.169 206.079 209.934 205.658 210.305C201.546 213.975 199.723 215.601 196.779 218.203C194.862 219.875 192.993 221.547 192.572 221.919C192.152 222.291 190.189 224.056 188.132 225.868C186.123 227.633 184.113 229.444 183.692 229.816C179.58 233.486 177.757 235.112 174.812 237.713C172.896 239.386 171.027 241.058 170.606 241.43C170.186 241.801 168.223 243.566 166.166 245.378C164.157 247.143 162.147 248.955 161.726 249.327C157.613 252.997 155.791 254.622 152.846 257.224C150.93 258.896 149.061 260.569 148.64 260.94C148.219 261.312 146.257 263.077 144.2 264.889C142.19 266.654 140.181 268.466 139.76 268.837C135.694 272.507 133.825 274.133 130.88 276.734C128.964 278.407 126.954 280.172 126.394 280.683C125.833 281.194 124.01 282.82 122.421 284.26C120.785 285.7 118.869 287.326 118.215 287.93C117.56 288.534 115.457 290.392 113.588 292.064C111.672 293.737 108.961 296.152 107.559 297.406C106.11 298.707 104.1 300.472 103.119 301.355C102.091 302.238 100.969 303.353 100.548 303.771C99.894 304.56 98.4919 304.607 83.9102 304.607L68.0198 304.56L69.7023 303.074C70.6371 302.238 74.0021 299.311 77.1802 296.524C80.3582 293.737 83.3026 291.089 83.7233 290.717C84.5645 289.881 84.6112 289.834 96.529 279.289C104.614 272.136 107.606 269.488 109.101 268.14C109.382 267.862 112.56 265.075 116.158 261.869C119.757 258.664 122.935 255.83 123.215 255.598C123.496 255.319 125.272 253.786 127.141 252.114C129.011 250.442 130.787 248.862 131.067 248.63C131.348 248.351 134.526 245.564 138.124 242.359C141.723 239.153 144.901 236.32 145.182 236.087C145.462 235.809 147.191 234.276 149.107 232.603C150.977 230.931 152.753 229.352 153.033 229.119C153.314 228.841 156.492 226.053 160.09 222.848C163.689 219.643 166.867 216.809 167.148 216.577C168.036 215.741 174.111 210.398 175.28 209.376C175.934 208.819 177.383 207.518 178.551 206.45C179.72 205.381 182.337 203.012 184.347 201.247C186.403 199.435 188.413 197.67 188.833 197.298C192.899 193.629 194.769 192.003 197.713 189.401C199.629 187.729 201.639 185.964 202.2 185.453C202.761 184.942 204.584 183.316 206.173 181.876C209.023 179.414 210.239 178.299 213.37 175.512C214.164 174.815 216.782 172.492 219.212 170.309C221.642 168.172 224.4 165.756 225.288 164.92C226.176 164.13 227.344 163.062 227.905 162.597C232.018 159.067 235.43 156.047 236.224 155.258C237.953 153.585 242.253 149.915 242.487 149.915C242.627 149.915 244.637 151.634 246.973 153.771ZM238.841 264.656H220.614V247.004H238.841V264.656ZM261.742 264.656H243.515V247.004H261.742V264.656ZM238.841 287.419H220.614V269.766H238.841V287.419ZM261.742 287.419H243.515V269.766H261.742V287.419Z" fill="#ECC16B"/>
</svg>
