<svg width="246" height="151" viewBox="0 0 246 151" fill="none" xmlns="http://www.w3.org/2000/svg">
<path fill-rule="evenodd" clip-rule="evenodd" d="M48.1906 150.373H188.745L118.902 87.5434L48.1906 150.373ZM116.951 130.707V122.018H108.02V130.707H116.951ZM128.172 130.707V122.018H119.241V130.707H128.172ZM116.951 141.912V133.223H108.02V141.912H116.951ZM128.172 141.912V133.223H119.241V141.912H128.172Z" fill="#ECC16B"/>
<path d="M128.653 34.8243C128.149 35.6933 127.508 36.9968 127.233 37.7514C125.974 41.1129 124.119 43.0109 119.653 45.412C117.615 46.5096 115.302 48.6134 114.088 50.4428C113.722 51.0145 112.989 52.0435 112.462 52.7295C111.959 53.4155 110.928 54.8562 110.218 55.9081C109.485 56.96 108.18 58.6522 107.287 59.6812C105.752 61.4649 104.997 62.1052 102.363 63.8431C101.722 64.2776 100.737 65.1694 100.188 65.8326C99.1341 67.0674 97.783 68.6681 97.3478 69.1255C97.2104 69.2627 96.7066 69.6514 96.2257 69.9715C95.7448 70.2917 94.8288 71.0463 94.1875 71.6409C93.5234 72.2583 92.2639 73.3559 91.4165 74.1106C90.5463 74.8652 89.6303 75.6655 89.4013 75.8942C87.6379 77.6321 84.7753 79.9417 84.3631 79.9875C84.1058 80.0089 83.2664 80.0303 82.4275 80.0517L82.2562 80.0561C80.1951 80.1018 77.1264 81.268 74.7218 82.9374L73.0043 84.1036L71.4928 83.8292C70.6684 83.6691 69.4546 83.6005 68.8134 83.6463L67.6455 83.7606L63.6149 87.8767C61.3935 90.1177 58.76 92.839 57.7294 93.9366C56.6989 95.0114 55.1874 96.4291 54.363 97.0694C53.5386 97.7097 52.8286 98.3271 52.7828 98.4415C52.737 98.5558 52.0042 99.4019 51.1111 100.339C50.2408 101.277 49.0271 102.763 48.4317 103.632C47.1721 105.53 46.508 106.194 44.9508 107.245C43.4164 108.274 43.0042 108.732 41.6988 111.041C41.0805 112.116 40.1416 113.488 39.592 114.129C39.0423 114.746 38.2637 115.729 37.8744 116.301C37.4851 116.873 37.1187 117.376 37.05 117.444C36.821 117.627 35.882 119.022 35.882 119.136C35.882 119.365 34.4622 121.629 33.6377 122.704C32.9049 123.687 27.111 129.793 22.5995 134.343C22.2217 134.725 21.77 135.152 21.281 135.594C20.7827 136.071 20.0078 136.773 19.1443 137.438C18.012 138.372 16.9424 139.191 16.3106 139.592L15.7751 139.854C15.6377 139.854 15.5003 139.923 15.4545 140.037C15.2713 140.472 9.86668 144.268 7.82851 145.388C6.56897 146.097 5.03461 146.943 4.39339 147.286C1.50788 148.864 0.385742 149.573 0.385742 149.825C0.385742 149.962 0.637651 150.19 0.981164 150.328L33.2484 150.35L118.737 74.2249L204.089 150.373L244.921 150.465C245.241 150.373 245.425 150.168 245.379 149.939C245.31 149.573 244.921 149.436 242.173 148.658C240.844 148.292 239.264 147.309 234.318 143.719C230.997 141.318 230.699 141.089 227.287 138.139C226.347 137.321 225.147 136.299 224.053 135.377L223.938 135.28C223.209 134.667 222.533 134.103 222.02 133.68C221.672 133.393 221.295 133.07 220.896 132.718C220.632 132.489 220.396 132.277 220.185 132.081C217.824 129.936 214.904 127.008 212.654 124.51C210.821 122.498 205.577 114.746 204.043 111.842C200.699 105.439 200.31 104.867 197.791 102.58C191.379 96.7722 190.463 95.8803 189.363 94.2339C188.218 92.5188 187.6 91.97 185.424 90.6208C184.486 90.0491 182.814 88.7 181.714 87.6252C179.447 85.4071 178.921 85.0869 177.203 84.8811C176.516 84.7896 175.669 84.561 175.302 84.378C174.936 84.1951 172.76 82.1599 170.47 79.8731C166.646 76.0543 166.256 75.5741 165.638 74.1106C164.424 71.2521 162.02 66.3814 160.692 64.1404C159.478 62.0823 158.653 60.4816 156.913 56.7313C156.501 55.8395 155.722 54.193 155.195 53.0725C153.34 49.1393 153.066 48.4762 152.081 45.6864C151.531 44.1314 150.867 42.5764 150.592 42.2563C149.997 41.4788 147.959 40.3811 147.088 40.3811C146.585 40.3811 146.081 40.747 144.753 42.0962C143.837 43.0337 142.806 43.857 142.485 43.9484C141.409 44.2229 138.959 43.9027 138.432 43.4454C138.18 43.1938 136.508 41.2044 134.745 39.0091C131.493 34.9387 130.05 33.2922 129.73 33.2922C129.638 33.2922 129.157 33.9783 128.653 34.8243Z" fill="#ECC16B"/>
<path d="M118.902 0.464844C59.4977 0.464844 11.341 49.3963 11.341 108.546C11.341 119.423 12.9695 129.921 15.9969 139.812L22.2963 134.59C5.36542 67.5272 55.1622 8.47229 118.902 7.47136C192.601 10.4741 228.455 70.53 218.496 130.586L224.471 135.59C226.563 127.253 227.459 117.548 227.459 108.565C226.463 44.5253 178.306 0.464844 118.902 0.464844Z" fill="#404040"/>
</svg>
