<svg width="56" height="50" viewBox="0 0 56 50" fill="none" xmlns="http://www.w3.org/2000/svg">
<path d="M25.028 0.349499C18.7397 2.13503 15.2358 8.52537 17.1442 14.8217C17.9263 17.3591 20.2101 21.4314 23.2134 25.6603C27.6246 31.894 28.0939 32.0819 30.5967 28.9181C34.695 23.7807 38.2302 17.735 39.2626 14.1326C40.7017 9.1832 37.9486 3.41937 33.0056 1.1013C30.5967 -0.0264033 27.4682 -0.30833 25.028 0.349499ZM31.066 3.51334C34.2883 4.60972 36.6972 7.99284 36.7285 11.4699C36.7598 12.8796 36.5095 13.7254 35.4146 16.0121C34.1944 18.5494 30.4715 24.4699 28.7822 26.506L28.1565 27.2892L27.3431 26.3494C25.7475 24.4699 21.8995 18.4555 20.8045 16.1374C18.8023 11.9085 19.0838 8.74465 21.6805 5.92538C24.1833 3.20009 27.5933 2.32299 31.066 3.51334Z" fill="white"/>
<path d="M26.5923 9.27726C25.2783 10.5929 26.2482 13.0363 28.094 13.0363C29.1264 13.0363 29.5018 12.7857 30.0024 11.8459C31.1599 9.65316 28.313 7.55437 26.5923 9.27726Z" fill="white"/>
<path d="M49.1173 14.6339C46.4581 15.6989 43.6737 16.764 42.9855 17.0459C41.8905 17.4531 41.5464 17.7977 40.7017 19.5206C40.1698 20.5857 39.7944 21.4941 39.8883 21.4941C39.9821 21.4941 42.8603 20.3664 46.3017 18.9881C49.743 17.6098 52.7151 16.4821 52.8715 16.4821C53.0592 16.4821 53.1844 20.8989 53.1844 28.8242V41.1663L47.1464 43.547C43.8302 44.8627 40.952 45.9277 40.733 45.9277C40.4514 45.9277 40.3575 43.7663 40.3575 37.3133V28.6989L39.5754 28.323C38.9184 28.041 38.6994 28.0724 38.1676 28.5422C37.5732 29.0748 37.5419 29.5133 37.5419 37.6892C37.5419 45.6458 37.5106 46.241 37.0101 46.2097C36.6972 46.2097 32.4425 45.0506 27.5307 43.6097L18.6145 41.041L18.5207 34.8699L18.4581 28.6675L17.676 28.323C17.019 28.041 16.8 28.0724 16.2682 28.5422C15.6737 29.0748 15.6425 29.5133 15.6425 35.1519V41.1663L9.60447 43.547C6.28827 44.8627 3.37877 45.9277 3.19106 45.9277C2.9095 45.9277 2.81564 43.0458 2.87821 33.6169L2.97207 21.3375L8.63464 19.0507L14.3285 16.7327L13.8279 15.4483C13.5464 14.7278 13.2961 14.1013 13.2648 14.0387C13.2335 13.9447 3.25363 17.8917 1.53296 18.6748C1.06369 18.8941 0.531844 19.3953 0.344134 19.8338C0.12514 20.335 0 24.8772 0 34.1495C0 47.306 0.0312849 47.7446 0.625698 48.5277C0.969832 48.9663 1.53296 49.4361 1.84581 49.5301C2.22123 49.6241 5.28715 48.559 9.85475 46.7422L17.2693 43.7663L28.2816 46.8988L39.2939 50L47.0525 46.8675C51.3386 45.1759 55.0927 43.5157 55.4056 43.2338C55.9687 42.7326 56 41.9494 56 28.3543V14.0074L55.1866 13.3809C54.7173 13.005 54.2793 12.723 54.1542 12.723C54.0603 12.723 51.7765 13.6001 49.1173 14.6339Z" fill="white"/>
</svg>
