<svg width="35" height="20" viewBox="0 0 35 20" fill="none" xmlns="http://www.w3.org/2000/svg">
<path d="M0.773288 4.45903C-0.257762 3.43897 -0.257763 1.78511 0.773287 0.765048C1.80434 -0.255016 3.476 -0.255016 4.50705 0.765048L19.4421 15.541C20.4731 16.561 20.4731 18.2149 19.4421 19.235C18.411 20.255 16.7394 20.255 15.7083 19.235L0.773288 4.45903Z" fill="white"/>
<path d="M34.2267 4.45903C35.2578 3.43897 35.2578 1.78511 34.2267 0.765048C33.1957 -0.255016 31.524 -0.255016 30.493 0.765048L15.5579 15.541C14.5269 16.561 14.5269 18.2149 15.5579 19.235C16.589 20.255 18.2606 20.255 19.2917 19.235L34.2267 4.45903Z" fill="white"/>
</svg>
