<svg width="934" height="60" viewBox="0 0 934 60" fill="none" xmlns="http://www.w3.org/2000/svg">
<path fill-rule="evenodd" clip-rule="evenodd" d="M814.841 60H821.283V1.77979e-06H814.841V60Z" fill="white"/>
<path fill-rule="evenodd" clip-rule="evenodd" d="M785.82 34.7146L800.42 60H793.083L778.607 34.9291H764.662V60H758.308V1.77979e-06H764.662V0.000923895H783.091C792.696 0.000923895 800.555 7.85979 800.555 17.465C800.555 26.1429 794.141 33.3947 785.82 34.7146ZM764.662 29.4747V5.45625H783.091C789.689 5.45625 795.1 10.8706 795.1 17.465C795.1 24.0596 789.689 29.4747 783.091 29.4747H764.662Z" fill="white"/>
<path fill-rule="evenodd" clip-rule="evenodd" d="M685.318 60H686.365V6.71123e-07H680.512V40.0879C680.512 42.6201 680.95 46.8118 680.95 46.8118C680.95 46.8118 678.505 43.3184 676.847 41.3094L641.904 6.71123e-07H634.574L640.341 6.81673V59.3885H646.277V19.3015C646.277 16.7693 645.754 12.5758 645.754 12.5758C645.754 12.5758 648.198 16.0701 649.859 18.0791L685.318 60Z" fill="white"/>
<path fill-rule="evenodd" clip-rule="evenodd" d="M528.441 60H534.793V28.0582H566.909V60H573.261V1.77979e-06H566.909V22.5001H539.79L534.793 28.0582V1.77979e-06H528.441V60Z" fill="white"/>
<path fill-rule="evenodd" clip-rule="evenodd" d="M502.738 60C513.257 60 520.93 54.1388 520.93 44.4833C520.93 35.6899 515.929 30.8631 506.187 26.5526L501.533 24.3973C494.98 21.3807 492.222 19.0525 492.222 13.8796C492.222 8.87966 495.756 5.51794 501.533 5.51794C507.05 5.51794 510.155 8.27601 512.396 11.8974L517.394 8.79333C514.292 3.62138 509.379 0 501.533 0C492.739 0 486.103 5.60359 486.103 14.0525C486.103 22.2413 490.67 26.2941 499.032 30.0866L503.689 32.2426C511.016 35.5179 514.722 38.5346 514.722 44.4833C514.722 50.6905 509.379 54.4839 502.569 54.4839C494.291 54.4839 490.241 50.2588 487.481 45.3454L482.308 48.1035C485.412 54.3107 491.534 60 502.738 60Z" fill="white"/>
<path fill-rule="evenodd" clip-rule="evenodd" d="M724.464 60C735.499 60 743.345 56.121 747.654 51.8978V22.8458L741.792 28.362V49.0531C738.171 51.9834 732.482 54.3973 724.464 54.3973C710.24 54.3973 700.24 43.966 700.24 30C700.24 16.035 710.155 5.6036 723.947 5.6036C731.187 5.6036 736.362 7.84526 740.153 11.8099L744.378 7.58672C739.549 2.41387 732.395 0 723.947 0C706.878 0 693.774 12.327 693.774 30C693.774 47.6728 706.965 60 724.464 60Z" fill="white"/>
<path fill-rule="evenodd" clip-rule="evenodd" d="M933.403 60H927.027C920.669 44.2376 914.255 28.8101 907.892 13.0346C907.419 14.7419 906.546 17.7218 905.717 19.7373L889.385 60H882.574L905.092 6.09656L902.631 1.53253e-06H908.688L933.403 60Z" fill="white"/>
<path fill-rule="evenodd" clip-rule="evenodd" d="M632.869 60H626.493C620.136 44.2376 613.721 28.8101 607.359 13.0346C606.885 14.7419 606.013 17.7218 605.184 19.7373L588.852 60H582.041L604.558 6.09656L602.098 1.53253e-06H608.154L632.869 60Z" fill="white"/>
<path fill-rule="evenodd" clip-rule="evenodd" d="M839.374 60H874.049V54.3524H845.727V1.77979e-06H839.374V60Z" fill="white"/>
<path fill-rule="evenodd" clip-rule="evenodd" d="M406.152 54.3973C392.68 54.3973 381.756 43.4741 381.756 30C381.756 16.5259 392.68 5.6036 406.152 5.6036C419.627 5.6036 430.551 16.5259 430.551 30C430.551 43.4741 419.627 54.3973 406.152 54.3973ZM436.153 30C436.153 13.4314 422.723 0 406.152 0C389.584 0 376.154 13.4314 376.154 30C376.154 46.5695 389.584 60 406.152 60C422.723 60 436.153 46.5695 436.153 30Z" fill="white"/>
<path fill-rule="evenodd" clip-rule="evenodd" d="M259.613 60C270.648 60 278.493 56.121 282.803 51.8978V22.8458L276.941 28.362V49.0531C273.32 51.9834 267.63 54.3973 259.613 54.3973C245.388 54.3973 235.389 43.966 235.389 30C235.389 16.035 245.303 5.6036 259.096 5.6036C266.336 5.6036 271.511 7.84526 275.302 11.8099L279.527 7.58672C274.698 2.41387 267.543 0 259.096 0C242.027 0 228.923 12.327 228.923 30C228.923 47.6728 242.114 60 259.613 60Z" fill="white"/>
<path fill-rule="evenodd" clip-rule="evenodd" d="M321.459 60C332.494 60 340.339 56.121 344.649 51.8978V22.8458L338.787 28.362V49.0531C335.166 51.9834 329.477 54.3973 321.459 54.3973C307.234 54.3973 297.235 43.966 297.235 30C297.235 16.035 307.149 5.6036 320.942 5.6036C328.182 5.6036 333.357 7.84526 337.148 11.8099L341.373 7.58672C336.544 2.41387 329.389 0 320.942 0C303.873 0 290.769 12.327 290.769 30C290.769 47.6728 303.96 60 321.459 60Z" fill="white"/>
<path fill-rule="evenodd" clip-rule="evenodd" d="M225.29 60H218.914C212.556 44.2376 206.142 28.8101 199.779 13.0346C199.306 14.7419 198.434 17.7218 197.604 19.7373L181.273 60H174.462L196.979 6.09656L194.518 1.95524e-06H200.575L225.29 60Z" fill="white"/>
<path fill-rule="evenodd" clip-rule="evenodd" d="M84.9231 60H119.598V54.3524H91.2753V2.89536e-07H84.9231V60Z" fill="white"/>
<path fill-rule="evenodd" clip-rule="evenodd" d="M129.692 60H164.367V54.3524H136.045V2.89536e-07H129.692V60Z" fill="white"/>
<path fill-rule="evenodd" clip-rule="evenodd" d="M60.9231 60H67.3646V1.56299e-06H60.9231V60Z" fill="white"/>
<path fill-rule="evenodd" clip-rule="evenodd" d="M357.231 60H363.672V2.89536e-07H357.231V60Z" fill="white"/>
<path fill-rule="evenodd" clip-rule="evenodd" d="M9.1085 22.1544L0 1.95524e-06H6.36676L15.3166 22.1544H15.4978L25.5126 46.9656C25.9885 45.2581 26.8496 42.2782 27.6879 40.2628L44.0016 1.95524e-06H50.8215L28.2995 53.9037L30.7693 60H24.7196L9.1085 22.1544Z" fill="white"/>
</svg>
