<svg width="75" height="75" viewBox="0 0 75 75" fill="none" xmlns="http://www.w3.org/2000/svg">
<path d="M55.4962 43.0961C55.35 43.0259 49.8823 40.3335 48.9108 39.9838C48.5141 39.8413 48.0892 39.7023 47.6372 39.7023C46.8989 39.7023 46.2787 40.0702 45.7956 40.793C45.2494 41.6048 43.596 43.5375 43.0851 44.1149C43.0184 44.1911 42.9273 44.2822 42.8728 44.2822C42.8238 44.2822 41.9776 43.9337 41.7215 43.8224C35.8561 41.2746 31.4041 35.1478 30.7936 34.1146C30.7064 33.966 30.7028 33.8986 30.7021 33.8986C30.7235 33.8199 30.9207 33.6222 31.0225 33.5202C31.3203 33.2255 31.643 32.8371 31.9551 32.4614C32.103 32.2834 32.251 32.1051 32.3964 31.9371C32.8493 31.4102 33.0509 31.0011 33.2847 30.5272L33.4072 30.281C33.978 29.147 33.4904 28.19 33.3329 27.881C33.2036 27.6224 30.8949 22.0505 30.6495 21.4651C30.0592 20.0525 29.2792 19.3948 28.1954 19.3948C28.0948 19.3948 28.1954 19.3948 27.7736 19.4126C27.2601 19.4343 24.4634 19.8025 23.2269 20.5819C21.9156 21.4086 19.6973 24.0439 19.6973 28.6783C19.6973 32.8493 22.3442 36.7875 23.4806 38.2853C23.5089 38.3231 23.5607 38.3998 23.636 38.5099C27.9882 44.8659 33.4137 49.5763 38.9138 51.7734C44.2089 53.8885 46.7163 54.133 48.1418 54.133H48.142C48.741 54.133 49.2205 54.086 49.6435 54.0444L49.9118 54.0188C51.741 53.8566 55.7608 51.7737 56.6752 49.2327C57.3955 47.2313 57.5854 45.0446 57.1062 44.251C56.778 43.7114 56.2123 43.4399 55.4962 43.0961Z" fill="white"/>
<path d="M38.1657 0C17.8534 0 1.32803 16.4012 1.32803 36.5608C1.32803 43.0812 3.073 49.4638 6.3786 55.0498L0.0515669 73.7134C-0.0662904 74.0613 0.021372 74.4461 0.278759 74.7081C0.464554 74.8978 0.716584 75.0001 0.97397 75.0001C1.07259 75.0001 1.17194 74.9852 1.26886 74.9543L20.7299 68.7702C26.0554 71.6156 32.0744 73.1175 38.166 73.1175C58.4764 73.1178 75 56.7183 75 36.5608C75 16.4012 58.4764 0 38.1657 0ZM38.1657 65.5018C32.4338 65.5018 26.8821 63.8467 22.1099 60.7152C21.9494 60.6098 21.7631 60.5557 21.5756 60.5557C21.4765 60.5557 21.3772 60.5708 21.2805 60.6015L11.5317 63.7004L14.6788 54.4157C14.7806 54.1152 14.7297 53.7838 14.5422 53.5276C10.9081 48.5621 8.98705 42.6952 8.98705 36.5608C8.98705 20.6007 22.0765 7.61591 38.1655 7.61591C54.2525 7.61591 67.3405 20.6007 67.3405 36.5608C67.3407 52.519 54.253 65.5018 38.1657 65.5018Z" fill="white"/>
</svg>
